<svg viewBox="0 0 24 24" fill="none" xmlns="http://www.w3.org/2000/svg" id="Alarm-Pause--Streamline-Solar-Broken" height="24" width="24">
  <desc>
    Alarm Pause Streamline Icon: https://streamlinehq.com
  </desc>
  <path d="M3.5 4.5 7.50002 2" stroke="#000000" stroke-linecap="round" stroke-linejoin="round" stroke-width="1.5"></path>
  <path d="m20.5 4.5 -4 -2.5" stroke="#000000" stroke-linecap="round" stroke-linejoin="round" stroke-width="1.5"></path>
  <path d="M8 10.5c0 -0.4659 0 -0.69891 0.07612 -0.88268 0.10149 -0.24503 0.29617 -0.43971 0.5412 -0.5412C8.80109 9 9.03406 9 9.5 9s0.6989 0 0.8827 0.07612c0.245 0.10149 0.4397 0.29617 0.5412 0.5412C11 9.80109 11 10.0341 11 10.5v5c0 0.4659 0 0.6989 -0.0761 0.8827 -0.1015 0.245 -0.2962 0.4397 -0.5412 0.5412C10.1989 17 9.96594 17 9.5 17s-0.69891 0 -0.88268 -0.0761c-0.24503 -0.1015 -0.43971 -0.2962 -0.5412 -0.5412C8 16.1989 8 15.9659 8 15.5v-5Z" stroke="#000000" stroke-width="1.5"></path>
  <path d="M13 10.5c0 -0.4659 0 -0.69891 0.0761 -0.88268 0.1015 -0.24503 0.2962 -0.43971 0.5412 -0.5412C13.8011 9 14.0341 9 14.5 9c0.4659 0 0.6989 0 0.8827 0.07612 0.245 0.10149 0.4397 0.29617 0.5412 0.5412C16 9.80109 16 10.0341 16 10.5v5c0 0.4659 0 0.6989 -0.0761 0.8827 -0.1015 0.245 -0.2962 0.4397 -0.5412 0.5412C15.1989 17 14.9659 17 14.5 17c-0.4659 0 -0.6989 0 -0.8827 -0.0761 -0.245 -0.1015 -0.4397 -0.2962 -0.5412 -0.5412C13 16.1989 13 15.9659 13 15.5v-5Z" stroke="#000000" stroke-width="1.5"></path>
  <path d="M7.5 5.20404C8.82378 4.43827 10.3607 4 12 4c4.9706 0 9 4.02944 9 9 0 4.9706 -4.0294 9 -9 9 -4.97056 0 -9 -4.0294 -9 -9 0 -1.6393 0.43827 -3.17622 1.20404 -4.5" stroke="#000000" stroke-linecap="round" stroke-width="1.5"></path>
</svg>