<svg viewBox="0 0 24 24" fill="none" xmlns="http://www.w3.org/2000/svg" id="Align-Bottom--Streamline-Solar-Broken" height="24" width="24">
  <desc>
    Align Bottom Streamline Icon: https://streamlinehq.com
  </desc>
  <path d="m10 21 12 0M2 21l4 0" stroke="#000000" stroke-linecap="round" stroke-width="1.5"></path>
  <path d="m5 9 0 5.5c0 0.9346 0 1.4019 0.20096 1.75 0.13165 0.228 0.32101 0.4174 0.54904 0.549 0.34808 0.201 0.81538 0.201 1.75 0.201s1.40192 0 1.75 -0.201c0.22803 -0.1316 0.41739 -0.321 0.54904 -0.549C10 15.9019 10 15.4346 10 14.5l0 -9c0 -0.93462 0 -1.40192 -0.20096 -1.75 -0.13165 -0.22803 -0.32101 -0.41739 -0.54904 -0.54904C8.90192 3 8.43462 3 7.5 3s-1.40192 0 -1.75 0.20096c-0.22803 0.13165 -0.41739 0.32101 -0.54904 0.54904 -0.16142 0.2796 -0.19318 0.63613 -0.19943 1.25" stroke="#000000" stroke-linecap="round" stroke-width="1.5"></path>
  <path d="M16.5 17c-0.9346 0 -1.4019 0 -1.75 -0.201 -0.228 -0.1316 -0.4174 -0.321 -0.549 -0.549C14 15.9019 14 15.4346 14 14.5l0 -6c0 -0.93462 0 -1.40192 0.201 -1.75 0.1316 -0.22803 0.321 -0.41739 0.549 -0.54904C15.0981 6 15.5654 6 16.5 6s1.4019 0 1.75 0.20096c0.228 0.13165 0.4174 0.32101 0.549 0.54904 0.201 0.34808 0.201 0.81538 0.201 1.75l0 6c0 0.9346 0 1.4019 -0.201 1.75 -0.1316 0.228 -0.321 0.4174 -0.549 0.549 -0.3481 0.201 -0.8154 0.201 -1.75 0.201Z" stroke="#000000" stroke-width="1.5"></path>
</svg>