<svg viewBox="0 0 24 24" fill="none" xmlns="http://www.w3.org/2000/svg" id="Clipboard-List--Streamline-Solar-Broken" height="24" width="24">
  <desc>
    Clipboard List Streamline Icon: https://streamlinehq.com
  </desc>
  <path d="m10.5 14 6.5 0" stroke="#000000" stroke-linecap="round" stroke-width="1.5"></path>
  <path d="M7 14h0.5" stroke="#000000" stroke-linecap="round" stroke-width="1.5"></path>
  <path d="M7 10.5h0.5" stroke="#000000" stroke-linecap="round" stroke-width="1.5"></path>
  <path d="M7 17.5h0.5" stroke="#000000" stroke-linecap="round" stroke-width="1.5"></path>
  <path d="M10.5 10.5H17" stroke="#000000" stroke-linecap="round" stroke-width="1.5"></path>
  <path d="M10.5 17.5H17" stroke="#000000" stroke-linecap="round" stroke-width="1.5"></path>
  <path d="M8 3.5C8 2.67157 8.67157 2 9.5 2h5c0.8284 0 1.5 0.67157 1.5 1.5v1c0 0.82843 -0.6716 1.5 -1.5 1.5h-5C8.67157 6 8 5.32843 8 4.5v-1Z" stroke="#000000" stroke-width="1.5"></path>
  <path d="M21 16.0002c0 2.8284 0 4.2427 -0.8787 5.1213 -0.8787 0.8787 -2.2929 0.8787 -5.1213 0.8787H9c-2.82843 0 -4.24264 0 -5.12132 -0.8787C3 20.2429 3 18.8286 3 16.0002v-3m13 -8.99825c2.175 0.01211 3.3529 0.10856 4.1213 0.87694C21 5.75757 21 7.17179 21 10.0002v2M8 4.00195c-2.17503 0.01211 -3.35294 0.10856 -4.12132 0.87694C3.11032 5.64725 3.01385 6.82511 3.00174 9" stroke="#000000" stroke-linecap="round" stroke-width="1.5"></path>
</svg>