<svg viewBox="0 0 24 24" fill="none" xmlns="http://www.w3.org/2000/svg" id="Diagram-Up--Streamline-Solar-Broken" height="24" width="24">
  <desc>
    Diagram Up Streamline Icon: https://streamlinehq.com
  </desc>
  <path d="M22 22H12c-4.71405 0 -7.07107 0 -8.53553 -1.4645C2 19.0711 2 16.714 2 12V9m0 -7v3" stroke="currentColor" stroke-linecap="round" stroke-width="1.5"></path>
  <path d="m19.0002 7 -3.1181 3.9264c-0.4776 0.6014 -0.7164 0.9022 -0.9905 1.0487 -0.4216 0.2254 -0.9253 0.2363 -1.3562 0.0295 -0.2803 -0.1345 -0.5319 -0.4245 -1.0352 -1.0046 -0.5034 -0.5801 -0.755 -0.8701 -1.0353 -1.00465 -0.4309 -0.2068 -0.9346 -0.19585 -1.3561 0.02945 -0.27419 0.1466 -0.513 0.4473 -0.99061 1.0487L6 15" stroke="currentColor" stroke-linecap="round" stroke-width="1.5"></path>
</svg>
