<svg viewBox="0 0 24 24" fill="none" xmlns="http://www.w3.org/2000/svg" id="Dumbbell-Large--Streamline-Solar-Broken" height="24" width="24">
  <desc>
    Dumbbell Large Streamline Icon: https://streamlinehq.com
  </desc>
  <path d="M5.39271 20.0756c0.69216 0.6921 1.03824 1.0382 1.46829 1.0382 0.43005 0 0.77613 -0.3461 1.46828 -1.0382 0.20273 -0.2028 0.53142 -0.2028 0.73415 0l0.73414 0.7341c0.68613 0.6862 1.02923 1.0292 1.43233 1.1372 0.264 0.0708 0.542 0.0708 0.8061 0 0.4031 -0.108 0.7461 -0.451 1.4323 -1.1372 0.6861 -0.6861 1.0292 -1.0292 1.1372 -1.4323 0.0708 -0.264 0.0708 -0.5421 0 -0.8061 -0.108 -0.4031 -0.4511 -0.7462 -1.1372 -1.4323l-1.1012 -1.1012 3.6707 -3.6707m2.5695 -8.44268c-0.6922 -0.69215 -1.0382 -1.03823 -1.4683 -1.03823 -0.43 0 -0.7761 0.34608 -1.4683 1.03823M21.1138 6.861c0 0.43005 -0.3461 0.77613 -1.0382 1.46828 -0.2028 0.20273 -0.2028 0.53142 0 0.73415l0.7341 0.73414c0.6862 0.68613 1.0292 1.02923 1.1372 1.43233 0.0708 0.264 0.0708 0.542 0 0.8061 -0.108 0.4031 -0.451 0.7461 -1.1372 1.4323 -0.6861 0.6861 -1.0292 1.0292 -1.4323 1.1372 -0.264 0.0708 -0.5421 0.0708 -0.8061 0 -0.4031 -0.108 -0.7462 -0.4511 -1.4323 -1.1372l-1.1012 -1.1012M3.92443 15.6707c-0.69216 0.6922 -1.03824 1.0383 -1.03824 1.4683m3.60774 0.3671 -3.30365 -3.3037c-0.68614 -0.6861 -1.02921 -1.0292 -1.13722 -1.4323 -0.07075 -0.264 -0.07075 -0.542 0 -0.8061 0.10801 -0.4031 0.45108 -0.7461 1.13722 -1.4323 0.68614 -0.68613 1.02921 -1.0292 1.43229 -1.1372 0.26405 -0.07076 0.54208 -0.07076 0.80614 0 0.40308 0.108 0.74615 0.45107 1.43229 1.1372l1.10121 1.1012m9.54389 -5.13897 -3.3037 -3.30365c-0.6861 -0.68614 -1.0292 -1.02921 -1.4323 -1.13721 -0.264 -0.07076 -0.542 -0.07076 -0.8061 0 -0.4031 0.108 -0.7461 0.45107 -1.4323 1.13721 -0.68613 0.68614 -1.0292 1.02921 -1.1372 1.43229 -0.07076 0.26405 -0.07076 0.54208 0 0.80614 0.108 0.40307 0.45107 0.74615 1.1372 1.43229l1.1012 1.10121 -3.67069 3.67069m8.07559 0.7342 -2.2024 -2.2025m-5.87319 1.4683 2.20239 2.2025" stroke="#000000" stroke-linecap="round" stroke-linejoin="round" stroke-width="1.5"></path>
</svg>