<svg viewBox="-0.75 -0.75 24 24" fill="none" xmlns="http://www.w3.org/2000/svg" id="Dumbbells--Streamline-Solar-Broken" height="24" width="24">
  <desc>
    Dumbbells Streamline Icon: https://streamlinehq.com
  </desc>
  <path d="m12.13190625 9.855656250000001 -0.35934374999999996 0.59896875 0.35934374999999996 -0.59896875Zm-0.49696875 -2.33521875 0.696375 0.0969c0.046781249999999996 -0.3855 -0.22715624999999998 -0.74139375 -0.61171875 -0.794915625l-0.08465625 0.698015625Zm-0.0883125 1.5210937500000001 -0.6799687499999999 0.161896875 0.6799687499999999 -0.161896875Zm3.5394375 0.49246875 0.61875 0.34265625 -0.61875 -0.34265625Zm-0.7600312499999999 0.62690625 0.20446874999999998 0.67753125 -0.20446874999999998 -0.67753125Zm0.78271875 -6.453740625 0.35934374999999996 -0.59904375 -0.35934374999999996 0.59904375Zm0.58528125 0.8140875000000001 0.6799687499999999 -0.161896875 -0.6799687499999999 0.161896875Zm-2.77940625 -1.1194125 -0.20446874999999998 -0.67749375 0.20446874999999998 0.67749375Zm-1.03753125 2.12165625 -0.08465625 0.698015625c0.38465625 0.0535125 0.73434375 -0.21560625 0.7811250000000001 -0.60110625l-0.69646875 -0.096909375Zm0.27749999999999997 -1.4947593750000001 -0.61875 -0.34261875 0.61875 0.34261875ZM2.6549437499999997 8.536875l-0.35930625 0.59904375 0.35930625 -0.59904375Zm-0.585253125 -0.8140875000000001 -0.679940625 0.161896875 0.679940625 -0.161896875Zm3.816909375 -1.0022437499999999 0.08465625 -0.698015625c-0.38461875 -0.053521875000000003 -0.734315625 0.21560625 -0.78106875 0.60110625l0.6964125 0.096909375Zm-0.277490625 1.4947593750000001 0.61875 0.34261875 -0.61875 -0.34261875Zm-0.7600312499999999 0.6268875 0.20448750000000002 0.677465625 -0.20448750000000002 -0.677465625Zm0.7827375 -6.45376875 0.35930625 -0.59904375 -0.35930625 0.59904375Zm0.496978125 2.33518125 -0.6964125 -0.096909375c-0.046753125 0.3855 0.2271375 0.741403125 0.61175625 0.794925l0.08465625 -0.698015625Zm0.088284375 -1.5210937500000001 0.679940625 -0.161896875 -0.679940625 0.161896875ZM3.43768125 2.0831062499999997l-0.204478125 -0.677503125 0.204478125 0.677503125Zm-0.7600218750000001 0.6268875 -0.61875 -0.34261875 0.61875 0.34261875ZM14.94965625 5.612615625l-0.32287499999999997 2.662584375 1.39284375 0.193809375 0.32287499999999997 -2.662575 -1.39284375 -0.19381875ZM13.301343750000001 9.4115625c-0.29971875 -0.0416625 -0.48721875000000003 -0.06819375 -0.628125 -0.0983625 -0.13368750000000001 -0.02863125 -0.17175 -0.050325 -0.18206250000000002 -0.056625l-0.7185937499999999 1.1980499999999998c0.205875 0.12684375 0.42065625 0.19190625 0.6305625 0.23681249999999998 0.2026875 0.04340625 0.44953125 0.07734375 0.72890625 0.11615625l0.1693125 -1.39603125Zm-2.362875 -1.9880343749999998c-0.03703125 0.30584062500000003 -0.07753125 0.63823125 -0.09974999999999999 0.927309375 -0.01940625 0.2528625 -0.037406249999999995 0.593109375 0.0279375 0.8525906249999999l1.3599374999999998 -0.32380312499999997c0.00496875 0.019771875 -0.0020625 -0.0006187499999999999 -0.002625 -0.089634375 -0.00046875 -0.079021875 0.00403125 -0.181584375 0.0136875 -0.307003125 0.01940625 -0.25193437500000004 0.0555 -0.55119375 0.09365625 -0.8656499999999999l-1.39284375 -0.193809375Zm1.5526875 1.833046875c-0.1201875 -0.074071875 -0.22134375 -0.20511562500000002 -0.26456250000000003 -0.37695l-1.3599374999999998 0.32380312499999997c0.1299375 0.515634375 0.44990625 0.970321875 0.90590625 1.251196875l0.7185937499999999 -1.1980499999999998Zm2.135625 -0.981375c-0.03871875 0.31908749999999997 -0.064125 0.5256468750000001 -0.093375 0.6825 -0.0283125 0.1514625 -0.052125 0.20765625000000001 -0.06609374999999999 0.233728125l1.2375 0.685228125c0.11025 -0.20540624999999998 0.16734374999999999 -0.42 0.20784375 -0.636590625 0.039375 -0.211171875 0.07040625 -0.469846875 0.10696874999999999 -0.77105625l-1.39284375 -0.193809375Zm-1.49475 2.53239375c0.279375 0.03890625 0.5261250000000001 0.0736875 0.73246875 0.0871875 0.2135625 0.01396875 0.4366875 0.0099375 0.666 -0.05634375l-0.40893749999999995 -1.35496875c-0.011437500000000001 0.00328125 -0.0534375 0.01378125 -0.1895625 0.004875 -0.14334375000000002 -0.009375 -0.3309375 -0.0350625 -0.6306562499999999 -0.07678125l-0.1693125 1.39603125Zm1.33528125 -1.616165625c-0.082875 0.15429375 -0.211875 0.25332187500000003 -0.34575 0.292040625l0.40893749999999995 1.35496875c0.5079374999999999 -0.14681249999999998 0.9256875 -0.49875 1.1743124999999999 -0.96178125l-1.2375 -0.685228125Zm-0.528 -5.040253125c0.29971875 0.041709375 0.48721875000000003 0.068240625 0.628125 0.0984 0.13368750000000001 0.02863125 0.17184375 0.050334375 0.18206250000000002 0.056634375l0.7185937499999999 -1.1980875c-0.205875 -0.12682500000000002 -0.42065625 -0.19183125 -0.63046875 -0.236775 -0.20278125 -0.04340625 -0.44962500000000005 -0.077315625 -0.729 -0.11619375l-0.1693125 1.396021875Zm2.4031875 1.655259375c0.0365625 -0.301209375 0.06825 -0.559790625 0.08053125 -0.774740625 0.0125625 -0.22042499999999998 0.00853125 -0.44356875 -0.04903125 -0.6723375l-1.3599374999999998 0.32379375c0.0073124999999999996 0.02904375 0.01696875 0.089896875 0.00815625 0.24406875 -0.009093750000000001 0.15965625 -0.03384375 0.36630937500000005 -0.0725625 0.685396875l1.39284375 0.19381875Zm-1.593 -1.5002250000000001c0.1201875 0.0740625 0.22134375 0.20510625 0.26456250000000003 0.376940625l1.3599374999999998 -0.32379375c-0.1299375 -0.51568125 -0.44990625 -0.9703124999999999 -0.90590625 -1.251234375l-0.7185937499999999 1.1980875Zm-0.640875 -1.55105625c-0.279375 -0.038868749999999994 -0.5261250000000001 -0.07365000000000001 -0.73246875 -0.087159375 -0.2135625 -0.0139875 -0.4366875 -0.009909375 -0.666 0.056353125l0.40893749999999995 1.354996875c0.011437500000000001 -0.003290625 0.0534375 -0.013846875 0.1895625 -0.00493125 0.14334375000000002 0.00939375 0.3309375 0.035053125 0.6306562499999999 0.0767625l0.1693125 -1.396021875ZM12.5735625 5.62040625c0.0380625 -0.31445625 0.07453125000000001 -0.6136687500000001 0.115875 -0.8625375 0.020624999999999998 -0.12389062499999999 0.0406875 -0.22429687499999998 0.06 -0.3005625 0.02175 -0.0859125 0.033468750000000005 -0.10370625 0.023906249999999997 -0.08595937499999999l-1.2375 -0.685228125c-0.1250625 0.232978125 -0.1888125 0.56685 -0.23034375 0.8166375 -0.047531250000000004 0.2855625 -0.08775000000000001 0.617990625 -0.12478125 0.92383125l1.39284375 0.19381875Zm0.13659374999999999 -2.896059375c-0.5079374999999999 0.146784375 -0.9256875 0.498759375 -1.1743124999999999 0.9617718749999999l1.2375 0.685228125c0.082875 -0.154284375 0.211875 -0.25330312499999996 0.34575 -0.29200312500000003l-0.40893749999999995 -1.354996875ZM2.81401875 6.631425l0.32292187499999997 -2.662584375 -1.392825 -0.193809375 -0.32293125 2.662575 1.392834375 0.19381875Zm1.0103625 1.461440625c-0.2997375 -0.041709375 -0.48721875000000003 -0.068240625 -0.628096875 -0.098409375 -0.13370625 -0.02863125 -0.17180625 -0.050325 -0.182034375 -0.056625l-0.7186125 1.1980875c0.205884375 0.12682500000000002 0.420628125 0.19183125 0.630496875 0.236775 0.20270625 0.043368750000000005 0.44955 0.07730625 0.728934375 0.1162125l0.1693125 -1.396040625ZM1.421184375 6.43760625c-0.036534375 0.301209375 -0.06823125 0.559790625 -0.08049375 0.774740625 -0.012590625 0.22042499999999998 -0.00856875 0.443559375 0.049059375 0.6723375l1.35988125 -0.32379375c-0.007321875 -0.02904375 -0.016959375 -0.089896875 -0.00815625 -0.24406875 0.009112499999999999 -0.15965625 0.033834375 -0.36630937500000005 0.07254375 -0.685396875l-1.392834375 -0.19381875ZM3.0142499999999997 7.9378312499999995c-0.12024375000000001 -0.0740625 -0.22134375 -0.20510625 -0.26461875 -0.376940625l-1.35988125 0.32379375c0.12988125 0.51568125 0.44982187500000004 0.9703124999999999 0.9058875000000001 1.251234375l0.7186125 -1.1980875Zm2.1759375000000003 -1.314196875c-0.0381375 0.31445625 -0.07456875 0.6136687500000001 -0.11595 0.8625375 -0.02060625 0.12389062499999999 -0.040678124999999996 0.22429687499999998 -0.059990625000000006 0.3005625 -0.021759375 0.0859125 -0.033421875000000004 0.10370625 -0.023896874999999998 0.08595937499999999l1.237509375 0.685228125c0.12508125 -0.2329875 0.188859375 -0.56685 0.2304 -0.8166375 0.047484375 -0.2855625 0.087665625 -0.617990625 0.12475312499999999 -0.92383125L5.1901875 6.623634375ZM3.65506875 9.48890625c0.279375 0.0388125 0.526115625 0.07359375 0.7324499999999999 0.08709375 0.21361875 0.014062499999999999 0.436734375 0.0099375 0.666046875 -0.05634375l-0.408965625 -1.354959375c-0.011390625 0.003290625 -0.053399999999999996 0.013846875 -0.18950625 0.00493125 -0.143390625 -0.00939375 -0.330984375 -0.035053125 -0.6307125 -0.0767625l-0.1693125 1.396040625Zm1.33528125 -1.6162125c-0.082828125 0.154284375 -0.21183749999999998 0.25330312499999996 -0.34575 0.29200312500000003l0.408965625 1.354959375c0.5079374999999999 -0.146746875 0.92570625 -0.49872187500000004 1.17429375 -0.9617343749999999l-1.237509375 -0.685228125Zm-0.5279625 -5.040262500000001c0.299728125 0.041709375 0.487209375 0.068240625 0.6280875 0.098409375 0.133715625 0.02863125 0.171815625 0.050325 0.182034375 0.056625l0.7186125 -1.1980875c-0.205884375 -0.12682500000000002 -0.42061875 -0.19183125 -0.6304875 -0.236765625 -0.20270625 -0.043415625 -0.449559375 -0.077325 -0.728934375 -0.11619375l-0.1693125 1.3960124999999999Zm2.362828125 1.9880812500000002c0.037087499999999995 -0.30584062500000003 0.077540625 -0.63823125 0.09974999999999999 -0.92731875 0.019424999999999998 -0.252853125 0.037406249999999995 -0.5931 -0.027946875 -0.85258125l-1.35988125 0.32379375c-0.004978125 -0.019762500000000002 0.0020531250000000003 0.000628125 0.0025875 0.08964375 0.0004875 0.079021875 -0.004059375 0.181584375 -0.013696874999999999 0.307003125 -0.01935 0.25193437500000004 -0.055509375 0.551184375 -0.093646875 0.865640625l1.392834375 0.19381875ZM5.272509375 2.987465625c0.12024375000000001 0.0740625 0.22134375 0.20510625 0.264628125 0.376940625l1.35988125 -0.32379375c-0.12988125 -0.51568125 -0.44983125 -0.9703124999999999 -0.9058968749999999 -1.251234375l-0.7186125 1.1980875Zm-0.640809375 -1.551046875c-0.279375 -0.038878125 -0.5261250000000001 -0.07365000000000001 -0.7324499999999999 -0.08716874999999999 -0.213628125 -0.0139875 -0.43674375 -0.009909375 -0.666046875 0.056353125l0.408965625 1.354996875c0.011390625 -0.003290625 0.053399999999999996 -0.013846875 0.189496875 -0.00493125 0.1434 0.00939375 0.330984375 0.035053125 0.630721875 0.0767625l0.1693125 -1.3960124999999999ZM3.1369406250000003 3.9688406250000003c0.0387 -0.31908749999999997 0.0640875 -0.5256468750000001 0.093365625 -0.6825 0.028265625 -0.1514625 0.05210625 -0.20765625000000001 0.066103125 -0.23373750000000001l-1.2375 -0.685228125c-0.1102875 0.205415625 -0.1674 0.4200375 -0.207815625 0.6365999999999999 -0.0394125 0.211171875 -0.07045312499999999 0.4698375 -0.10697812500000001 0.77105625l1.392825 0.193809375Zm0.0962625 -2.5632375c-0.5079374999999999 0.146784375 -0.925715625 0.498759375 -1.17429375 0.9617718749999999l1.2375 0.685228125c0.082828125 -0.154284375 0.21183749999999998 -0.25330312499999996 0.34575937500000004 -0.29200312500000003l-0.408965625 -1.354996875Zm2.810934375 4.0160156250000005 5.7483 0.79989375 0.1693125 -1.396021875 -5.748290624999999 -0.79989375 -0.16932187499999998 1.396021875Zm5.67545625 1.400803125 -5.7483375 -0.79989375 -0.1693125 1.396021875 5.7483375 0.79989375 0.1693125 -1.396021875Z" fill="#000000" stroke-width="1.5"></path>
  <path d="m10.62253125 19.6981875 0.42815625 0.5463749999999999 -0.42815625 -0.5463749999999999Zm0.204375 -2.38509375 -0.67584375 0.19396875c-0.09421875 -0.3766875 0.13190625 -0.7689375 0.50521875 -0.876l0.170625 0.6820312500000001Zm0.27525000000000005 1.4953125 0.69159375 0.06721875 -0.69159375 -0.06721875Zm-4.50185625 0.06525c-0.0942375 -0.3766875 0.13195312499999998 -0.7689375 0.505209375 -0.87609375 0.37325625 -0.10715625 0.75223125 0.11146875 0.84646875 0.48815625000000007l-1.3516781249999998 0.3879375Zm1.054321875 0.9241875 -0.56754375 0.42871875 0.56754375 -0.42871875Zm0.8307375 0.51375 -0.115771875 0.70246875 0.115771875 -0.70246875Zm-1.572534375 -6.286218750000001 -0.428184375 -0.5463749999999999 0.428184375 0.5463749999999999Zm0.211996875 0.95709375c-0.047915625 0.38990625 -0.3964125 0.67584375 -0.7783875 0.638625 -0.381975 -0.037125000000000005 -0.65278125 -0.38334375 -0.60485625 -0.77325l1.38324375 0.134625Zm1.925184375 -1.5705 0.11578125 -0.7025625 -0.11578125 0.7025625Zm1.2903375000000001 1.95609375 0.170625 0.6820312500000001c-0.3733125 0.10715625 -0.75225 -0.111375 -0.84646875 -0.48806249999999995l0.67584375 -0.19396875Zm-0.45956250000000004 -1.44234375 0.56746875 -0.42871875 -0.56746875 0.42871875Zm9.972750000000001 3.1230937500000002 0.42815625 0.5463749999999999 -0.42815625 -0.5463749999999999Zm0.4796250000000001 -0.8897812500000001 0.69159375 0.06721875 -0.69159375 -0.06721875Zm-3.907125 -0.45290624999999995 -0.170625 -0.682125c0.37321875 -0.10706249999999999 0.75215625 0.11146875 0.84646875 0.48815625000000007l-0.67584375 0.19396875Zm0.45956250000000004 1.44234375 -0.5675625000000001 0.42871875 0.5675625000000001 -0.42871875Zm0.83071875 0.51375 -0.11578125 0.70246875 0.11578125 -0.70246875ZM16.143749999999997 11.376l-0.42815625 -0.5463749999999999 0.42815625 0.5463749999999999Zm-0.20428125 2.3850000000000002 0.67575 -0.19396875c0.0943125 0.37678124999999996 -0.13190625 0.7689375 -0.5051249999999999 0.87609375l-0.170625 -0.682125Zm-0.27534375 -1.49521875 -0.69159375 -0.0673125 0.69159375 0.0673125Zm2.61684375 -1.5031875 0.11578125 -0.7025625 -0.11578125 0.7025625Zm0.83071875 0.51375 0.5675625000000001 -0.42871875 -0.5675625000000001 0.42871875Zm-9.703687500000001 8.1451875c0.29184375 -0.0838125 0.47474999999999995 -0.13678125 0.61096875 -0.18675 0.12946875 -0.0474375 0.16528125000000002 -0.07471875 0.17540624999999999 -0.08296875l0.8563125 1.0927499999999999c-0.18768749999999998 0.1543125 -0.3916875 0.24881250000000002 -0.59371875 0.32287499999999997 -0.19528125000000002 0.071625 -0.43546875 0.14015624999999998 -0.7077187500000001 0.21825l-0.34125 -1.36415625Zm2.09475 -2.30240625c0.07453125000000001 0.2979375 0.155625 0.62175 0.213375 0.90534375 0.0504375 0.24778124999999998 0.11053125 0.58359375 0.077625 0.8511562500000001l-1.3831875 -0.13453125c-0.002625 0.021 0.001875 0.000375 -0.00853125 -0.08775000000000001 -0.0091875 -0.07809375 -0.02634375 -0.17896874999999998 -0.051375000000000004 -0.30178125 -0.05025 -0.24675 -0.12300000000000001 -0.538125 -0.19959375000000001 -0.8445l1.3516875 -0.3879375Zm-1.3083749999999998 2.0326875c0.1111875 -0.09140625000000001 0.194625 -0.23578125 0.2161875 -0.41071874999999997l1.3831875 0.13453125c-0.06525 0.53109375 -0.3268125 1.0268437499999998 -0.7430625 1.3689375l-0.8563125 -1.0927499999999999Zm-2.242396875 -0.66609375c0.07777500000000001 0.310875 0.12838125 0.5117812500000001 0.176671875 0.6628124999999999 0.046603124999999995 0.14578125 0.0769125 0.19743750000000002 0.093525 0.22059375l-1.135096875 0.8574375c-0.135159375 -0.18871875000000002 -0.218521875 -0.39403125 -0.28543125 -0.603375 -0.06521249999999999 -0.204 -0.12796875000000002 -0.45618749999999997 -0.20134687499999998 -0.74953125l1.3516781249999998 -0.3879375Zm1.7972718749999999 2.29996875c-0.27225 0.07818750000000001 -0.512184375 0.14746874999999998 -0.7147125000000001 0.19003124999999998 -0.209559375 0.04396875 -0.4303875 0.0714375 -0.66495 0.038343749999999996l0.23154375 -1.4049375c0.0126 0.00178125 0.05638125 0.006093749999999999 0.19065000000000001 -0.022125 0.14130937500000001 -0.029625000000000002 0.324384375 -0.08175 0.61621875 -0.16546875l0.34125 1.36415625Zm-1.5270750000000002 -1.4165625c0.100275 0.13996874999999998 0.24002812499999998 0.22040625 0.37895625 0.24l-0.23154375 1.4049375c-0.52018125 -0.0733125 -0.978084375 -0.36253124999999997 -1.282509375 -0.7875l1.135096875 -0.8574375Zm-0.09481875 -5.06709375c-0.29184375 0.0838125 -0.47471250000000004 0.13668750000000002 -0.610940625 0.18665625 -0.12945 0.047531250000000004 -0.165328125 0.07471875 -0.17540624999999999 0.0830625l-0.85636875 -1.0927499999999999c0.18769687499999999 -0.1543125 0.39174375 -0.24881250000000002 0.593775 -0.32296874999999997 0.1952625 -0.071625 0.43545 -0.1400625 0.7076812499999999 -0.21825l0.341259375 1.36425Zm-0.786346875 0.26971875c-0.111178125 0.0913125 -0.19468125 0.23578125 -0.2161875 0.41071874999999997l-1.38324375 -0.134625c0.06526875 -0.53109375 0.3268125 -1.02675 0.7430625 -1.36884375l0.85636875 1.0927499999999999Zm0.4450875 -1.63396875c0.272221875 -0.07809375 0.512203125 -0.147375 0.7147312499999999 -0.1899375 0.20956875 -0.0440625 0.4303875 -0.0714375 0.664959375 -0.0384375l-0.231553125 1.40503125c-0.0126 -0.00178125 -0.05638125 -0.0061875 -0.19065000000000001 0.02203125 -0.14129999999999998 0.02971875 -0.324384375 0.08184375 -0.6162281249999999 0.1655625l-0.341259375 -1.36425Zm1.8784031249999997 2.62425c-0.07668749999999999 -0.30637499999999995 -0.14962499999999998 -0.59765625 -0.22134375 -0.8383125 -0.03571875 -0.11971875000000001 -0.067875 -0.2161875 -0.096375 -0.28884375 -0.0321 -0.08184375 -0.045628125 -0.0973125 -0.03358125 -0.08053125l1.1350500000000001 -0.85734375c0.15346875000000001 0.21412499999999998 0.25818749999999996 0.5370937499999999 0.33009375 0.7786875 0.08240625 0.2765625 0.1633125 0.60046875 0.23784375 0.8984062500000001l-1.3516875 0.3879375Zm-0.4987125 -2.852625c0.52018125 0.07340624999999999 0.9780562500000001 0.362625 1.2824625 0.78759375l-1.1350500000000001 0.85734375c-0.100284375 -0.13996874999999998 -0.24002812499999998 -0.2203125 -0.378965625 -0.23990625000000002l0.231553125 -1.40503125ZM19.4630625 15.181875l-0.6487499999999999 -2.59340625 1.3516875 -0.3879375 0.6487499999999999 2.59340625 -1.3516875 0.3879375Zm-0.8240625 1.5902812499999999c0.29184375 -0.0838125 0.47465625 -0.13668750000000002 0.610875 -0.18665625 0.12946875 -0.047531250000000004 0.165375 -0.07481249999999999 0.17540624999999999 -0.0830625l0.85640625 1.0927499999999999c-0.18768749999999998 0.1543125 -0.39178124999999997 0.24881250000000002 -0.5938125 0.32287499999999997 -0.19518749999999999 0.071625 -0.43537499999999996 0.14015624999999998 -0.7076250000000001 0.21825l-0.34125 -1.36415625Zm2.1757500000000003 -1.9782187500000001c0.07340624999999999 0.29334375 0.13678125 0.5454375 0.17559375 0.75703125 0.03975 0.21703125 0.06337499999999999 0.43959375 0.034406250000000006 0.67528125l-1.38328125 -0.13453125c0.0035625 -0.02896875 0.005718750000000001 -0.08990625 -0.021937500000000002 -0.24112499999999998 -0.028687499999999998 -0.15675 -0.07865625 -0.35775 -0.15646875 -0.66871875l1.3516875 -0.3879375Zm-1.38946875 1.7085c0.1111875 -0.09140625000000001 0.19471875 -0.23578125 0.2161875 -0.41071874999999997l1.38328125 0.13453125c-0.06525 0.53109375 -0.3268125 1.0268437499999998 -0.7430625 1.3689375l-0.85640625 -1.0927499999999999Zm-2.32340625 -0.99028125c0.07659374999999999 0.30637499999999995 0.14962499999999998 0.5975625 0.22125 0.83821875 0.03571875 0.1198125 0.06796875 0.21628124999999998 0.096375 0.28893749999999996 0.03215625 0.08184375 0.04565625 0.09721875 0.03365625 0.0804375l-1.1351250000000002 0.8574375c-0.15337499999999998 -0.21412499999999998 -0.25809375 -0.5370937499999999 -0.33009375 -0.7786875 -0.08240625 -0.2765625 -0.1633125 -0.6005625 -0.23775 -0.8984062500000001l1.3516875 -0.3879375Zm1.8783750000000001 2.62415625c-0.27225 0.07818750000000001 -0.51225 0.14746874999999998 -0.71475 0.19003124999999998 -0.20953125 0.0440625 -0.43040625 0.0714375 -0.66496875 0.038343749999999996l0.2315625 -1.4049375c0.0125625 0.00178125 0.05634375 0.006093749999999999 0.1906875 -0.022125 0.14128125 -0.029625000000000002 0.32437499999999997 -0.08175 0.61621875 -0.16546875l0.34125 1.36415625Zm-1.52709375 -1.4165625c0.10021875 0.13996874999999998 0.24 0.22040625 0.3789375 0.24l-0.2315625 1.4049375c-0.52021875 -0.0733125 -0.9780937499999999 -0.36253124999999997 -1.2825000000000002 -0.7875l1.1351250000000002 -0.8574375Zm-0.094875 -5.06709375c-0.29184375 0.0838125 -0.47465625 0.13668750000000002 -0.610875 0.18665625 -0.12946875 0.047531250000000004 -0.165375 0.07471875 -0.17540624999999999 0.0830625l-0.85640625 -1.0927499999999999c0.18768749999999998 -0.1543125 0.39178124999999997 -0.24881250000000002 0.5938125 -0.32296874999999997 0.19518749999999999 -0.071625 0.43537499999999996 -0.1400625 0.7076250000000001 -0.21825l0.34125 1.36425Zm-2.0946562500000003 2.3023125c-0.07453125000000001 -0.29784374999999996 -0.15571875 -0.62175 -0.21346875 -0.90534375 -0.0504375 -0.24778124999999998 -0.11053125 -0.5834999999999999 -0.077625 -0.8511562500000001l1.38328125 0.134625c0.00253125 -0.021 -0.00196875 -0.000375 0.008437499999999999 0.08775000000000001 0.009281250000000001 0.07809375 0.02634375 0.178875 0.051375000000000004 0.30178125 0.05025 0.24675 0.12300000000000001 0.538125 0.19959375000000001 0.8444062499999999l-1.35159375 0.3879375Zm1.3083749999999998 -2.0325937499999998c-0.1111875 0.0913125 -0.19471875 0.23578125 -0.2161875 0.41071874999999997l-1.38328125 -0.134625c0.06525 -0.531 0.3268125 -1.02675 0.7430625 -1.36884375l0.85640625 1.0927499999999999Zm0.44503125 -1.63396875c0.27225 -0.07809375 0.51225 -0.147375 0.71475 -0.1899375 0.20953125 -0.0440625 0.43040625 -0.0714375 0.66496875 -0.0384375l-0.2315625 1.40503125c-0.0125625 -0.00178125 -0.05634375 -0.0061875 -0.1906875 0.02203125 -0.14128125 0.02971875 -0.32437499999999997 0.08184375 -0.61621875 0.1655625l-0.34125 -1.36425Zm1.79728125 2.3000624999999997c-0.07771875 -0.31096875 -0.12834375 -0.5117812500000001 -0.176625 -0.6629062499999999 -0.04659375 -0.14578125 -0.07696875 -0.19734374999999998 -0.09356249999999999 -0.22059375l1.1351250000000002 -0.85734375c0.1351875 0.188625 0.21853125 0.39403125 0.285375 0.60328125 0.06525 0.204 0.1280625 0.45628125 0.201375 0.749625l-1.3516875 0.3879375Zm-0.4175625 -2.5284375c0.520125 0.07340624999999999 0.9780937499999999 0.362625 1.2825000000000002 0.78759375l-1.1351250000000002 0.85734375c-0.10021875 -0.13996874999999998 -0.24 -0.2203125 -0.3789375 -0.23990625000000002l0.2315625 -1.40503125Zm-2.28665625 4.3830937500000005 -5.599125000000001 1.60696875 -0.34125 -1.36415625 5.5990312499999995 -1.60696875 0.34134375 1.36415625Zm-5.4538125 2.1879375000000003 5.599125000000001 -1.6070625 0.34125 1.36425 -5.599125000000001 1.60696875 -0.34125 -1.36415625Z" fill="#000000" stroke-width="1.5"></path>
</svg>