<svg viewBox="0 0 24 24" fill="none" xmlns="http://www.w3.org/2000/svg" id="Flame--Streamline-Solar-Broken" height="24" width="24">
  <desc>
    Flame Streamline Icon: https://streamlinehq.com
  </desc>
  <path d="M7.37087 8c0.9911 -1.52438 1.97267 -3.09031 2.58518 -4.62288 0.25965 -0.64979 1.06005 -0.95513 1.61665 -0.53109C14.9439 5.41409 20 10.3783 20 15.0002c0 1.1736 -0.1992 2.1654 -0.5302 2.9998M5.46561 11C4.61333 12.4539 4 13.8133 4 15.0002c0 3.1069 2.24558 5.3088 4.08142 6.3715 0.42062 0.2435 0.83005 -0.2644 0.60935 -0.6974 -0.48598 -0.9535 -0.95744 -2.1849 -0.95744 -3.1741 0 -1.3714 1.04492 -2.4735 1.79128 -3.1802 0.19143 -0.1812 0.49139 -0.1784 0.65739 0.0264 0.3081 0.3803 0.6162 0.8616 0.9243 1.2513 0.1809 0.2287 0.5178 0.2085 0.6765 -0.0361 0.9861 -1.5196 1.2148 -3.4585 1.2679 -4.9077 0.016 -0.4375 0.5279 -0.6523 0.8214 -0.3276 1.2838 1.4204 2.9279 3.7233 2.9279 5.6739 0 1.8159 -1.0177 3.7462 -1.8981 5.0114 -0.2581 0.3709 0.0255 0.8738 0.4569 0.7396 0.5146 -0.1601 1.0677 -0.4004 1.6065 -0.7396" stroke="#000000" stroke-linecap="round" stroke-width="1.5"></path>
</svg>