<svg viewBox="0 0 24 24" fill="none" xmlns="http://www.w3.org/2000/svg" id="Gallery-Minimalistic--Streamline-Solar-Broken" height="24" width="24">
  <desc>
    Gallery Minimalistic Streamline Icon: https://streamlinehq.com
  </desc>
  <path stroke="#000000" d="M14 8a2 2 0 1 0 4 0 2 2 0 1 0 -4 0" stroke-width="1.5"></path>
  <path d="m5 13.307 0.81051 -0.7528c0.92607 -0.8601 2.3727 -0.8118 3.23937 0.1081l2.64752 2.8104c0.5382 0.5712 1.4192 0.6482 2.0483 0.1789 0.9065 -0.6763 2.1687 -0.5994 2.9865 0.1818L19 18" stroke="#000000" stroke-linecap="round" stroke-width="1.5"></path>
  <path d="M22 12c0 4.714 0 7.0711 -1.4645 8.5355C19.0711 22 16.714 22 12 22c-4.71405 0 -7.07107 0 -8.53553 -1.4645C2 19.0711 2 16.714 2 12c0 -4.71405 0 -7.07107 1.46447 -8.53553C4.92893 2 7.28595 2 12 2c4.714 0 7.0711 0 8.5355 1.46447 0.9738 0.97374 1.3001 2.34208 1.4094 4.53553" stroke="#000000" stroke-linecap="round" stroke-width="1.5"></path>
</svg>