<svg xmlns="http://www.w3.org/2000/svg" viewBox="0 0 24 24" fill="none" stroke="#000000" stroke-linecap="round" stroke-linejoin="round" id="Hand-Move--Streamline-Tabler" height="24" width="24">
  <desc>
    Hand Move Streamline Icon: https://streamlinehq.com
  </desc>
  <path d="M8 13V4.5a1.5 1.5 0 0 1 3 0V12" stroke-width="2"></path>
  <path d="M11 11.5v-2a1.5 1.5 0 0 1 3 0V12" stroke-width="2"></path>
  <path d="M14 10.5a1.5 1.5 0 0 1 3 0V12" stroke-width="2"></path>
  <path d="M17 11.5a1.5 1.5 0 0 1 3 0V16a6 6 0 0 1 -6 6h-2a6 6 0 0 1 -5.012 -2.7L7 19c-0.312 -0.479 -1.407 -2.388 -3.286 -5.728a1.5 1.5 0 0 1 0.536 -2.022 1.867 1.867 0 0 1 2.28 0.28L8 13" stroke-width="2"></path>
  <path d="M2.541 5.594a13.487 13.487 0 0 1 2.46 -1.427" stroke-width="2"></path>
  <path d="M14 3.458c1.32 0.354 2.558 0.902 3.685 1.612" stroke-width="2"></path>
</svg>