<svg viewBox="0 0 24 24" fill="none" xmlns="http://www.w3.org/2000/svg" id="Heart-Pulse--Streamline-Solar-Broken" height="24" width="24">
  <desc>
    Heart Pulse Streamline Icon: https://streamlinehq.com
  </desc>
  <path d="M18 12h-0.8014c-0.8297 0 -1.2445 0 -1.5884 0.1947 -0.3438 0.1947 -0.5573 0.5504 -0.9841 1.2618l-0.0309 0.0515c-0.3976 0.6627 -0.5965 0.9941 -0.8857 0.9887 -0.2893 -0.0055 -0.4756 -0.3441 -0.848 -1.0213l-1.6873 -3.0678c-0.3473 -0.63142 -0.5209 -0.94714 -0.7983 -0.96211 -0.2773 -0.01497 -0.4839 0.28021 -0.89715 0.87061l-0.28302 0.4043c-0.43892 0.627 -0.65839 0.9405 -0.984 1.1101C7.88612 12 7.50342 12 6.73803 12H6" stroke="#000000" stroke-linecap="round" stroke-width="1.5"></path>
  <path d="m8.96173 18.9108 0.46432 -0.5889 -0.46432 0.5889ZM12 5.5006l-0.5404 0.5201c0.1414 0.1469 0.3365 0.2299 0.5404 0.2299 0.2039 0 0.399 -0.083 0.5404 -0.2299L12 5.5006Zm3.0383 13.4103 0.4643 0.589 -0.4643 -0.589ZM12 20.4859l0 -0.75 0 0.75Zm-9.34334 -7.0895c0.21892 0.3516 0.68145 0.4592 1.03308 0.2403 0.35163 -0.2189 0.45921 -0.6815 0.24029 -1.0331l-1.27337 0.7928Zm3.87303 2.3754c-0.29324 -0.2925 -0.76811 -0.292 -1.06066 0.0013 -0.29254 0.2932 -0.29197 0.7681 0.00128 1.0606l1.05938 -1.0619ZM2.75 9.13707c0 -2.80288 1.25722 -4.542 2.82921 -5.13996 1.57625 -0.59958 3.77208 -0.16691 5.88039 2.02359l1.0808 -1.0402c-2.3915 -2.48467 -5.1957 -3.25981 -7.49449 -2.38538C2.74286 3.47116 1.25 5.88785 1.25 9.13707h1.5ZM15.5026 19.4999c1.4923 -1.1765 3.2811 -2.7538 4.7035 -4.5161 1.4065 -1.7426 2.5439 -3.7749 2.5439 -5.84677h-1.5c0 1.55097 -0.8723 3.24587 -2.2111 4.90467 -1.3229 1.639 -3.015 3.1371 -4.4649 4.2802l0.9286 1.178ZM22.75 9.13703c0 -3.24919 -1.4929 -5.66588 -3.7959 -6.54192 -2.2988 -0.87441 -5.103 -0.09928 -7.4945 2.38539l1.0808 1.0402c2.1083 -2.1905 4.3041 -2.62317 5.8804 -2.02359 1.572 0.59795 2.8292 2.33707 2.8292 5.13992h1.5ZM8.49742 19.4998C9.77172 20.5044 10.6501 21.2359 12 21.2359l0 -1.5c-0.7307 0 -1.1843 -0.3185 -2.57395 -1.414l-0.92863 1.1779Zm6.07658 -1.1779c-1.3897 1.0955 -1.8433 1.414 -2.574 1.414l0 1.5c1.3499 0 2.2283 -0.7315 3.5026 -1.736l-0.9286 -1.178ZM3.93003 12.6036C3.18403 11.4054 2.75 10.2312 2.75 9.13707h-1.5c0 1.47993 0.58054 2.93243 1.40666 4.25933l1.27337 -0.7928Zm5.49602 5.7183c-0.91697 -0.7229 -1.93512 -1.5912 -2.89636 -2.5501l-1.05938 1.0619c1.01316 1.0108 2.07788 1.9178 3.02711 2.6661l0.92863 -1.1779Z" fill="#000000" stroke-width="1.5"></path>
</svg>