<svg viewBox="0 0 24 24" fill="none" xmlns="http://www.w3.org/2000/svg" id="Notes--Streamline-Solar-Broken" height="24" width="24">
  <desc>
    Notes Streamline Icon: https://streamlinehq.com
  </desc>
  <path d="m11.7769 10 4.8296 1.2941" stroke="currentColor" stroke-linecap="round" stroke-width="1.5"></path>
  <path d="m11 12.8975 2.8978 0.7764" stroke="currentColor" stroke-linecap="round" stroke-width="1.5"></path>
  <path d="M20.3116 12.6473c-0.6042 2.2551 -0.9064 3.3826 -1.5913 4.1139 -0.5408 0.5774 -1.2407 0.9815 -2.0111 1.1611 -0.0963 0.0225 -0.194 0.0398 -0.2942 0.0521 -0.9151 0.1129 -2.0316 -0.1863 -4.0642 -0.7309 -2.2551 -0.6043 -3.38265 -0.9064 -4.11393 -1.5913 -0.57742 -0.5408 -0.9815 -1.2407 -1.16114 -2.0112 -0.22752 -0.9758 0.0746 -2.1033 0.67885 -4.35837l0.51764 -1.93186c0.0869 -0.32431 0.16755 -0.62531 0.24399 -0.90516 0.45507 -1.66604 0.76088 -2.58263 1.3473 -3.20874 0.54079 -0.57742 1.24069 -0.9815 2.01119 -1.16114 0.9757 -0.22752 2.1033 0.0746 4.3584 0.67885 2.255 0.60425 3.3826 0.90637 4.1139 1.59129 0.5774 0.54081 0.9815 1.2407 1.1611 2.01116 0.1609 0.69005 0.0569 1.45601 -0.2315 2.64297" stroke="currentColor" stroke-linecap="round" stroke-width="1.5"></path>
  <path d="M3.27222 16.647c0.60425 2.2551 0.90637 3.3826 1.59129 4.1139 0.54081 0.5774 1.2407 0.9815 2.01115 1.1611 0.97578 0.2275 2.10332 -0.0746 4.35844 -0.6788 2.255 -0.6043 3.3826 -0.9064 4.1139 -1.5913 0.4929 -0.4617 0.8595 -1.0393 1.068 -1.6778M8.51621 6.44531c-0.35253 0.09115 -0.7388 0.19465 -1.16544 0.30897 -2.25508 0.60425 -3.38262 0.90637 -4.1139 1.59129 -0.57742 0.54081 -0.9815 1.2407 -1.16114 2.01113 -0.16091 0.6901 -0.0569 1.4562 0.23155 2.6433" stroke="currentColor" stroke-linecap="round" stroke-linejoin="round" stroke-width="1.5"></path>
</svg>
