<svg viewBox="0 0 24 24" fill="none" xmlns="http://www.w3.org/2000/svg" id="Notebook--Streamline-Solar-Broken" height="24" width="24">
  <desc>
    Notebook Streamline Icon: https://streamlinehq.com
  </desc>
  <path d="M21 16c0 2.8284 0 4.2426 -0.8787 5.1213C19.2426 22 17.8284 22 15 22H9c-2.82843 0 -4.24264 0 -5.12132 -0.8787C3 20.2426 3 18.8284 3 16V8c0 -2.82843 0 -4.24264 0.87868 -5.12132C4.75736 2 6.17157 2 9 2h6c2.8284 0 4.2426 0 5.1213 0.87868C21 3.75736 21 5.17157 21 8v4" stroke="#000000" stroke-linecap="round" stroke-width="1.5"></path>
  <path d="M8 2v4m0 16V10" stroke="#000000" stroke-linecap="round" stroke-width="1.5"></path>
  <path d="M2 12h2" stroke="#000000" stroke-linecap="round" stroke-width="1.5"></path>
  <path d="M2 16h2" stroke="#000000" stroke-linecap="round" stroke-width="1.5"></path>
  <path d="M2 8h2" stroke="#000000" stroke-linecap="round" stroke-width="1.5"></path>
  <path d="M11.5 6.5h5" stroke="#000000" stroke-linecap="round" stroke-width="1.5"></path>
  <path d="M11.5 10h5" stroke="#000000" stroke-linecap="round" stroke-width="1.5"></path>
</svg>