<svg viewBox="0 0 24 24" fill="none" xmlns="http://www.w3.org/2000/svg" id="Pen-New-Square--Streamline-Solar-Broken" height="24" width="24">
  <desc>
    Pen New Square Streamline Icon: https://streamlinehq.com
  </desc>
  <path d="M2 12c0 4.714 0 7.0711 1.46447 8.5355C4.92893 22 7.28595 22 12 22c4.714 0 7.0711 0 8.5355 -1.4645C22 19.0711 22 16.714 22 12v-1.5M13.5 2H12C7.28595 2 4.92893 2 3.46447 3.46447 2.49073 4.43821 2.16444 5.80655 2.0551 8" stroke="#000000" stroke-linecap="round" stroke-width="1.5"></path>
  <path d="m16.652 3.45506 0.6489 -0.64882c1.075 -1.07499 2.8179 -1.07499 3.8929 0 1.0749 1.075 1.0749 2.81791 0 3.8929l-0.6489 0.64881M16.652 3.45506s0.0811 1.37873 1.2977 2.59526c1.2165 1.21653 2.5952 1.29763 2.5952 1.29763M16.652 3.45506l-5.9648 5.96487c-0.404 0.40401 -0.606 0.60597 -0.77977 0.82877 -0.20494 0.2627 -0.38064 0.547 -0.52399 0.8478 -0.12153 0.255 -0.21187 0.526 -0.39255 1.0681L8.41242 13.9M20.5449 7.34795l-2.9824 2.98245m-2.9824 2.9824c-0.404 0.404 -0.606 0.606 -0.8288 0.7798 -0.2627 0.2049 -0.547 0.3806 -0.8478 0.524 -0.255 0.1215 -0.526 0.2118 -1.0681 0.3925l-1.7354 0.5785m0 0 -1.12291 0.3743c-0.26674 0.0889 -0.56083 0.0195 -0.75965 -0.1793 -0.19882 -0.1989 -0.26824 -0.4929 -0.17933 -0.7597L8.41242 13.9M10.1 15.5876 8.41242 13.9" stroke="#000000" stroke-linecap="round" stroke-width="1.5"></path>
</svg>