<svg viewBox="0 0 24 24" fill="none" xmlns="http://www.w3.org/2000/svg" id="Qr-Code--Streamline-Solar-Broken" height="24" width="24">
  <desc>
    QR Code Streamline Icon: https://streamlinehq.com
  </desc>
  <path d="M2 16.9c0 -1.3094 0 -1.9641 0.29472 -2.445 0.16491 -0.2691 0.39117 -0.4954 0.66028 -0.6603C3.43594 13.5 4.09063 13.5 5.4 13.5h1.1c1.88562 0 2.82843 0 3.41421 0.5858C10.5 14.6716 10.5 15.6144 10.5 17.5v1.1c0 1.3094 0 1.9641 -0.2947 2.445 -0.1649 0.2691 -0.39119 0.4954 -0.6603 0.6603C9.06406 22 8.40937 22 7.1 22c-1.96406 0 -2.94609 0 -3.6675 -0.4421 -0.40366 -0.2473 -0.74305 -0.5867 -0.99042 -0.9904" stroke="#000000" stroke-linecap="round" stroke-width="1.5"></path>
  <path d="M22 7.1c0 1.30937 0 1.96406 -0.2947 2.445 -0.1649 0.26911 -0.3912 0.4954 -0.6603 0.6603 -0.4809 0.2947 -1.1356 0.2947 -2.445 0.2947h-1.1c-1.8856 0 -2.8284 0 -3.4142 -0.58579C13.5 9.32843 13.5 8.38562 13.5 6.5V5.4c0 -1.30937 0 -1.96406 0.2947 -2.445 0.1649 -0.26911 0.3912 -0.49537 0.6603 -0.66028C14.9359 2 15.5906 2 16.9 2c1.9641 0 2.9461 0 3.6675 0.44208 0.4037 0.24737 0.7431 0.58676 0.9904 0.99042" stroke="#000000" stroke-linecap="round" stroke-width="1.5"></path>
  <path d="M16.5 6.25c0 -0.51541 0 -0.77311 0.1291 -0.95507 0.0456 -0.06421 0.1016 -0.12027 0.1658 -0.16582C16.9769 5 17.2346 5 17.75 5s0.7731 0 0.9551 0.12911c0.0642 0.04555 0.1202 0.10161 0.1658 0.16582C19 5.47689 19 5.73459 19 6.25c0 0.51541 0 0.77311 -0.1291 0.95507 -0.0456 0.06421 -0.1016 0.12027 -0.1658 0.16582C18.5231 7.5 18.2654 7.5 17.75 7.5s-0.7731 0 -0.9551 -0.12911c-0.0642 -0.04555 -0.1202 -0.10161 -0.1658 -0.16582C16.5 7.02311 16.5 6.76541 16.5 6.25Z" fill="#000000" stroke-width="1.5"></path>
  <path d="M12.75 22c0 0.4142 0.3358 0.75 0.75 0.75s0.75 -0.3358 0.75 -0.75h-1.5Zm1.6389 -8.1629 0.4166 0.6236 -0.4166 -0.6236Zm-0.5518 0.5518 -0.6236 -0.4167 0.6236 0.4167ZM19 12.75h-2v1.5h2v-1.5ZM12.75 19v3h1.5v-3h-1.5ZM17 12.75c-0.6866 0 -1.258 -0.0009 -1.719 0.046 -0.4735 0.0481 -0.9128 0.1529 -1.3088 0.4175l0.8333 1.2472c0.1085 -0.0725 0.2725 -0.1363 0.6273 -0.1724 0.3674 -0.0374 0.8494 -0.0383 1.5672 -0.0383v-1.5ZM14.25 17c0 -0.7178 0.0009 -1.1998 0.0383 -1.5672 0.0361 -0.3548 0.0999 -0.5188 0.1724 -0.6273l-1.2472 -0.8333c-0.2646 0.396 -0.3694 0.8353 -0.4175 1.3088 -0.0469 0.461 -0.046 1.0324 -0.046 1.719h1.5Zm-0.2778 -3.7865c-0.3003 0.2006 -0.5581 0.4584 -0.7587 0.7587l1.2472 0.8333c0.0912 -0.1365 0.2083 -0.2536 0.3448 -0.3448l-0.8333 -1.2472Z" fill="#000000" stroke-width="1.5"></path>
  <path d="M22.75 13.5c0 -0.4142 -0.3358 -0.75 -0.75 -0.75s-0.75 0.3358 -0.75 0.75h1.5Zm-1.9846 8.3478 0.287 0.6929 -0.287 -0.6929Zm1.0824 -1.0824 -0.693 -0.287 0.693 0.287ZM17 22.75h2v-1.5h-2v1.5ZM22.75 17v-3.5h-1.5V17h1.5ZM19 22.75c0.4557 0 0.835 0.0004 1.1454 -0.0208 0.3171 -0.0216 0.6166 -0.0682 0.907 -0.1885l-0.574 -1.3859c-0.0772 0.032 -0.1944 0.0615 -0.4351 0.0779 -0.2475 0.0169 -0.5671 0.0173 -1.0433 0.0173v1.5ZM21.25 19c0 0.4762 -0.0004 0.7958 -0.0173 1.0433 -0.0164 0.2407 -0.0459 0.3579 -0.0779 0.4351l1.3859 0.574c0.1203 -0.2904 0.1669 -0.5899 0.1885 -0.907 0.0212 -0.3104 0.0208 -0.6897 0.0208 -1.1454h-1.5Zm-0.1976 3.5407c0.6738 -0.2791 1.2092 -0.8145 1.4883 -1.4883l-1.3859 -0.574c-0.1268 0.3062 -0.3702 0.5496 -0.6764 0.6764l0.574 1.3859Z" fill="#000000" stroke-width="1.5"></path>
  <path d="M2 7.1c0 -1.96406 0 -2.94609 0.44208 -3.6675 0.24737 -0.40366 0.58676 -0.74305 0.99042 -0.99042C4.15391 2 5.13594 2 7.1 2c1.30937 0 1.96406 0 2.445 0.29472 0.26911 0.16491 0.4954 0.39117 0.6603 0.66028 0.2947 0.48094 0.2947 1.13563 0.2947 2.445v1.1c0 1.88562 0 2.82843 -0.58579 3.41421C9.32843 10.5 8.38562 10.5 6.5 10.5H5.4c-1.30937 0 -1.96406 0 -2.445 -0.2947 -0.26911 -0.1649 -0.49537 -0.39119 -0.66028 -0.6603C2 9.06406 2 8.40937 2 7.1Z" stroke="#000000" stroke-width="1.5"></path>
  <path d="M5 6.25c0 -0.51541 0 -0.77311 0.12911 -0.95507 0.04555 -0.06421 0.10161 -0.12027 0.16582 -0.16582C5.47689 5 5.73459 5 6.25 5c0.51541 0 0.77311 0 0.95507 0.12911 0.06421 0.04555 0.12027 0.10161 0.16582 0.16582C7.5 5.47689 7.5 5.73459 7.5 6.25c0 0.51541 0 0.77311 -0.12911 0.95507 -0.04555 0.06421 -0.10161 0.12027 -0.16582 0.16582C7.02311 7.5 6.76541 7.5 6.25 7.5c-0.51541 0 -0.77311 0 -0.95507 -0.12911 -0.06421 -0.04555 -0.12027 -0.10161 -0.16582 -0.16582C5 7.02311 5 6.76541 5 6.25Z" fill="#000000" stroke-width="1.5"></path>
  <path d="M5 17.75c0 -0.5154 0 -0.7731 0.12911 -0.9551 0.04555 -0.0642 0.10161 -0.1202 0.16582 -0.1658 0.18196 -0.1291 0.43966 -0.1291 0.95507 -0.1291 0.51541 0 0.77311 0 0.95507 0.1291 0.06421 0.0456 0.12027 0.1016 0.16582 0.1658 0.12911 0.182 0.12911 0.4397 0.12911 0.9551s0 0.7731 -0.12911 0.9551c-0.04555 0.0642 -0.10161 0.1202 -0.16582 0.1658C7.02311 19 6.76541 19 6.25 19c-0.51541 0 -0.77311 0 -0.95507 -0.1291 -0.06421 -0.0456 -0.12027 -0.1016 -0.16582 -0.1658C5 18.5231 5 18.2654 5 17.75Z" fill="#000000" stroke-width="1.5"></path>
  <path d="M16 17.75c0 -0.7022 0 -1.0533 0.1685 -1.3056 0.073 -0.1092 0.1667 -0.2029 0.2759 -0.2759C16.6967 16 17.0478 16 17.75 16s1.0533 0 1.3056 0.1685c0.1092 0.073 0.2029 0.1667 0.2759 0.2759 0.1685 0.2523 0.1685 0.6034 0.1685 1.3056s0 1.0533 -0.1685 1.3056c-0.073 0.1092 -0.1667 0.2029 -0.2759 0.2759 -0.2523 0.1685 -0.6034 0.1685 -1.3056 0.1685s-1.0533 0 -1.3056 -0.1685c-0.1092 -0.073 -0.2029 -0.1667 -0.2759 -0.2759C16 18.8033 16 18.4522 16 17.75Z" fill="#000000" stroke-width="1.5"></path>
</svg>