<svg viewBox="-0.75 -0.75 24 24" fill="none" xmlns="http://www.w3.org/2000/svg" id="Refresh--Streamline-Solar-Broken" height="24" width="24">
  <desc>
    Refresh Streamline Icon: https://streamlinehq.com
  </desc>
  <path d="m3.4498218749999996 10.624968749999999 -0.703125 0 0.703125 0Zm0 1.5625312500000001 -0.495225 0.499125c0.274134375 0.27196875000000004 0.716315625 0.27196875000000004 0.99045 0L3.4498218749999996 12.1875Zm2.07005625 -1.06340625c0.27566250000000003 -0.27346875000000004 0.27740625 -0.7186874999999999 0.0039 -0.9943124999999999 -0.27350625 -0.27571874999999996 -0.718696875 -0.27740625 -0.994359375 -0.0039375l0.9904593749999999 0.99825Zm-3.149653125 -0.99825c-0.27566250000000003 -0.27346875000000004 -0.720853125 -0.27178125 -0.994359375 0.0039375 -0.27350625 0.275625 -0.27175312500000004 0.72084375 0.003909375 0.9943124999999999l0.99045 -0.99825ZM17.452125000000002 6.930740624999999c0.20334375000000002 0.33080625 0.6363749999999999 0.43411875 0.96721875 0.230746875 0.33075 -0.203371875 0.4340625 -0.6364218749999999 0.23071875 -0.9672281249999999l-1.1979375 0.73648125Zm-1.61484375 -3.5483625c-0.33075 -0.20353125 -0.76378125 -0.100434375 -0.9673125 0.230278125 -0.20353125 0.3307125 -0.1005 0.7638 0.23025 0.96733125l0.7370625 -1.1976093749999999Zm-4.1529375 0.14204999999999998c0.38784375 0.019003125 0.71765625 -0.2800125 0.7366875 -0.667865625 0.01903125 -0.3878625 -0.28003125 -0.71769375 -0.667875 -0.736696875l-0.06881250000000001 1.4045625ZM11.32396875 2.109375c-4.731890625 0 -8.577271875 3.8073750000000004 -8.577271875 8.515593749999999l1.40625 0c0 -3.9211687499999996 3.205340625 -7.109343750000001 7.171021875 -7.109343750000001l0 -1.40625Zm-8.577271875 8.515593749999999 0 1.5625312500000001 1.40625 0 0 -1.5625312500000001 -1.40625 0Zm1.19835 2.06165625 1.5748312500000001 -1.5625312500000001 -0.9904593749999999 -0.99825 -1.574821875 1.5625312500000001 0.99045 0.99825Zm0 -0.99825 -1.574821875 -1.5625312500000001 -0.99045 0.99825 1.574821875 1.5625312500000001 0.99045 -0.99825ZM18.6500625 6.194259375000001c-0.70246875 -1.142578125 -1.66790625 -2.1073125 -2.81278125 -2.81188125l-0.7370625 1.1976093749999999c0.9579375 0.5895656250000001 1.7653125 1.39663125 2.3519062500000003 2.350753125l1.1979375 -0.73648125Zm-6.89690625 -4.0743937500000005c-0.14221875 -0.006965625 -0.285375 -0.010490625 -0.4291875 -0.010490625l0 1.40625c0.12084374999999999 0 0.24103125 0.0029625 0.360375 0.008803125l0.06881250000000001 -1.4045625Z" fill="#000000" stroke-width="1.5"></path>
  <path d="m11.13984375 19.6875 0 0.703125 0 -0.703125Zm7.90425 -7.81246875h0.703125Zm0 -1.5625312500000001 0.49425 -0.5000625c-0.2739375 -0.27075 -0.71465625 -0.27075 -0.9885937499999999 0l0.49434374999999997 0.5000625Zm-2.07515625 1.06246875c-0.2761875 0.27290625 -0.2788125 0.718125 -0.0058125 0.9943124999999999s0.718125 0.2788125 0.9943124999999999 0.0058125l-0.9885 -1.000125Zm3.16171875 1.000125c0.2761875 0.273 0.7213125 0.270375 0.9943124999999999 -0.0058125s0.270375 -0.7214062499999999 -0.0058125 -0.9944062499999999l-0.9885 1.00021875Zm-15.145321875 3.193125c-0.203934375 -0.33046875 -0.637153125 -0.43303125 -0.9676125 -0.22903125 -0.33046875 0.20390625 -0.433040625 0.6371249999999999 -0.229096875 0.96759375l1.196709375 -0.7385624999999999Zm5.826946875 3.4089375c-0.3879375 -0.01715625 -0.7163437500000001 0.2835 -0.7335 0.6714374999999999 -0.0170625 0.3879375 0.2835 0.7163437500000001 0.6714374999999999 0.73340625l0.06206249999999999 -1.40484375Zm-4.14391875 0.17559375c0.33260625 0.20034375 0.764709375 0.0931875 0.9651281250000001 -0.23943750000000003 0.20041875 -0.33253125 0.093253125 -0.764625 -0.23935312499999997 -0.9650625l-0.725775 1.2045ZM11.13984375 20.390625c4.74590625 0 8.607375000000001 -3.8048437500000003 8.607375000000001 -8.515593749999999l-1.40625 0c0 3.9186562499999997 -3.2162812499999998 7.109343750000001 -7.201124999999999 7.109343750000001l0 1.40625Zm8.607375000000001 -8.515593749999999V10.3125h-1.40625v1.5625312500000001h1.40625Zm-1.19746875 -2.06259375 -1.5808125 1.5625312500000001 0.9885 1.000125 1.58090625 -1.5625312500000001 -0.9885937499999999 -1.000125Zm0 1.000125 1.58090625 1.5625312500000001 0.9885 -1.00021875 -1.5808125 -1.5624375000000001 -0.9885937499999999 1.000125Zm-7.799531249999999 9.5694375c0.1291875 0.005718750000000001 0.259125 0.008625 0.389625 0.008625l0 -1.40625c-0.109875 0 -0.21909375 -0.0024375 -0.3275625 -0.00721875l-0.06206249999999999 1.40484375Zm-6.96159375 -4.0752187499999994c0.716709375 1.1613749999999998 1.7061187500000001 2.13871875 2.8797375 2.84596875l0.725775 -1.2045c-0.9828374999999999 -0.59221875 -1.81036875 -1.41028125 -2.408803125 -2.38003125l-1.196709375 0.7385624999999999Z" fill="#000000" stroke-width="1.5"></path>
</svg>