<svg viewBox="0 0 24 24" fill="none" xmlns="http://www.w3.org/2000/svg" id="Restart-Circle--Streamline-Solar-Broken" height="24" width="24">
  <desc>
    Restart Circle Streamline Icon: https://streamlinehq.com
  </desc>
  <path d="m15.9775 8.71452 -0.442 -0.45242c-1.9526 -1.99892 -5.1184 -1.99892 -7.07103 0 -1.95263 1.9989 -1.95263 5.2398 0 7.2387s5.11843 1.9989 7.07103 0c1.1355 -1.1624 1.6107 -2.7449 1.4256 -4.2588m-0.9836 -2.52748h-2.6517m2.6517 0V6" stroke="#000000" stroke-linecap="round" stroke-linejoin="round" stroke-width="1.5"></path>
  <path d="M7 3.33782C8.47087 2.48697 10.1786 2 12 2c5.5228 0 10 4.47715 10 10 0 5.5228 -4.4772 10 -10 10 -5.52285 0 -10 -4.4772 -10 -10 0 -1.8214 0.48697 -3.52913 1.33782 -5" stroke="#000000" stroke-linecap="round" stroke-width="1.5"></path>
</svg>