<svg viewBox="0 0 24 24" fill="none" xmlns="http://www.w3.org/2000/svg" id="Settings--Streamline-Solar-Broken" height="24" width="24">
  <desc>
    Settings Streamline Icon: https://streamlinehq.com
  </desc>
  <path stroke="#000000" d="M9 12a3 3 0 1 0 6 0 3 3 0 1 0 -6 0" stroke-width="1.5"></path>
  <path d="M3.66122 10.6392c0.47255 0.2969 0.7766 0.8027 0.7766 1.3607 -0.00001 0.5581 -0.30406 1.0639 -0.7766 1.3608 -0.32156 0.202 -0.52874 0.3635 -0.67614 0.5556 -0.32291 0.4209 -0.46542 0.9527 -0.39618 1.4786 0.05192 0.3944 0.28489 0.7979 0.75083 1.605 0.46595 0.807 0.69892 1.2105 1.01453 1.4527 0.42082 0.3229 0.95268 0.4654 1.47858 0.3962 0.24003 -0.0316 0.48344 -0.1303 0.81912 -0.3077 0.49348 -0.2608 1.08362 -0.2712 1.56699 0.0079 0.48332 0.2791 0.76932 0.7953 0.79017 1.353 0.0142 0.3795 0.05046 0.6397 0.14312 0.8634 0.20299 0.49 0.59234 0.8794 1.08236 1.0824C10.6022 22 11.0681 22 12 22c0.9319 0 1.3978 0 1.7654 -0.1522 0.49 -0.203 0.8794 -0.5924 1.0824 -1.0824 0.0926 -0.2237 0.1289 -0.4839 0.1431 -0.8633 0.0208 -0.5578 0.3068 -1.074 0.7902 -1.3531 0.4833 -0.279 1.0734 -0.2686 1.5668 -0.0078 0.3358 0.1774 0.5792 0.2761 0.8192 0.3077 0.5259 0.0693 1.0578 -0.0733 1.4786 -0.3962 0.3156 -0.2421 0.5486 -0.6457 1.0146 -1.4527 0.2074 -0.3593 0.3687 -0.6386 0.4883 -0.8728m-0.8099 -2.7664c-0.4725 -0.2969 -0.7765 -0.8027 -0.7766 -1.3607 0 -0.5581 0.3041 -1.064 0.7766 -1.3609 0.3216 -0.202 0.5287 -0.3635 0.6761 -0.5556 0.3229 -0.42082 0.4654 -0.95268 0.3962 -1.47858 -0.0519 -0.39442 -0.2849 -0.79794 -0.7509 -1.60497 -0.4659 -0.80704 -0.6989 -1.21055 -1.0145 -1.45273 -0.4208 -0.32291 -0.9527 -0.46542 -1.4786 -0.39619 -0.24 0.03161 -0.4834 0.13027 -0.8191 0.3077 -0.4935 0.26081 -1.0836 0.27121 -1.5669 -0.00787 -0.4833 -0.27906 -0.7693 -0.79526 -0.7901 -1.35293 -0.0142 -0.37951 -0.0505 -0.63968 -0.1431 -0.8634 -0.203 -0.49005 -0.5924 -0.8794 -1.0824 -1.08239C13.3978 2 12.9319 2 12 2c-0.9319 0 -1.3978 0 -1.7654 0.15224 -0.49002 0.20299 -0.87937 0.59234 -1.08236 1.08239 -0.09266 0.2237 -0.12892 0.48385 -0.14312 0.86331 -0.02086 0.55772 -0.30687 1.07397 -0.79021 1.35302 -0.48334 0.27906 -1.07343 0.26863 -1.56686 0.00784 -0.33572 -0.17744 -0.57915 -0.27611 -0.8192 -0.30772 -0.5259 -0.06923 -1.05776 0.07328 -1.47858 0.39619 -0.31561 0.24218 -0.54858 0.6457 -1.01453 1.45273 -0.20743 0.35929 -0.36869 0.63859 -0.48836 0.87273" stroke="#000000" stroke-linecap="round" stroke-width="1.5"></path>
</svg>