<svg viewBox="0 0 24 24" fill="none" xmlns="http://www.w3.org/2000/svg" id="Smartphone-Vibration--Streamline-Solar-Broken" height="24" width="24">
  <desc>
    Smartphone Vibration Streamline Icon: https://streamlinehq.com
  </desc>
  <path d="M19 10V8c0 -2.82843 0 -4.24264 -0.8787 -5.12132C17.2426 2 15.8284 2 13 2h-2c-2.82843 0 -4.24264 0 -5.12132 0.87868C5 3.75736 5 5.17157 5 8v8c0 2.8284 0 4.2426 0.87868 5.1213C6.75736 22 8.17157 22 11 22h2c2.8284 0 4.2426 0 5.1213 -0.8787C19 20.2426 19 18.8284 19 16v-2" stroke="#000000" stroke-linecap="round" stroke-width="1.5"></path>
  <path d="M14.5 19h-5" stroke="#000000" stroke-linecap="round" stroke-width="1.5"></path>
  <path d="m21.9999 6 -0.7764 1.55279c-0.1408 0.28152 -0.1408 0.6129 0 0.89442l0.5528 1.10558c0.1407 0.28152 0.1407 0.61291 0 0.89441l-0.5528 1.1056c-0.1408 0.2815 -0.1408 0.6129 0 0.8944l0.5528 1.1056c0.1407 0.2815 0.1407 0.6129 0 0.8944l-0.5528 1.1056c-0.1408 0.2815 -0.1408 0.6129 0 0.8944L21.9999 18" stroke="#000000" stroke-linecap="round" stroke-linejoin="round" stroke-width="1.5"></path>
  <path d="m2 6 0.77639 1.55279c0.14077 0.28152 0.14077 0.6129 0 0.89442l-0.55278 1.10558c-0.14077 0.28152 -0.14077 0.61291 0 0.89441l0.55278 1.1056c0.14077 0.2815 0.14077 0.6129 0 0.8944l-0.55278 1.1056c-0.14077 0.2815 -0.14077 0.6129 0 0.8944l0.55278 1.1056c0.14077 0.2815 0.14077 0.6129 0 0.8944L2 18" stroke="#000000" stroke-linecap="round" stroke-linejoin="round" stroke-width="1.5"></path>
</svg>