<svg viewBox="0 0 24 24" fill="none" xmlns="http://www.w3.org/2000/svg" id="Square-Share-Line--Streamline-Solar-Broken" height="24" width="24">
  <desc>
    Square Share Line Streamline Icon: https://streamlinehq.com
  </desc>
  <path d="M22 7h-8c-1.8176 0 -2.9133 0.89202 -3.3196 1.30029 -0.1258 0.12644 -0.1887 0.18967 -0.1896 0.19053 -0.0008 0.00086 -0.0641 0.06377 -0.1905 0.1896C9.89202 9.08671 9 10.1824 9 12v3m13 -8 -5 -5m5 5 -5 5" stroke="#000000" stroke-linecap="round" stroke-linejoin="round" stroke-width="1.5"></path>
  <path d="M3.46485 20.5352C4.9297 22 7.28733 22 12.0026 22c4.7153 0 7.0729 0 8.5378 -1.4648 1.2411 -1.2412 1.4307 -3.1233 1.4596 -6.5373M3.46485 20.5352C2 19.0703 2 16.7127 2 11.9974m1.46485 8.5378C4.92931 21.9996 7.28595 22 12 22c4.714 0 7.0711 0 8.5355 -1.4645 1.2409 -1.2409 1.4304 -3.1226 1.4593 -6.5361M3.46485 20.5352C2.00038 19.0707 2 16.714 2 12m1.46485 -8.54037C4.70599 2.21848 6.58807 2.02895 10.0021 2m-7.947 6c0.10934 -2.19345 0.43563 -3.56179 1.40937 -4.53553C4.70529 2.22364 6.58687 2.03415 10 2.00522" stroke="#000000" stroke-linecap="round" stroke-width="1.5"></path>
</svg>