<svg viewBox="0 0 24 24" fill="none" xmlns="http://www.w3.org/2000/svg" id="Stopwatch-Play--Streamline-Solar-Broken" height="24" width="24">
  <desc>
    Stopwatch Play Streamline Icon: https://streamlinehq.com
  </desc>
  <path d="M10 2h4" stroke="#000000" stroke-linecap="round" stroke-width="1.5"></path>
  <path d="M13.8876 10.9348C14.9625 11.8117 15.5 12.2501 15.5 13s-0.5375 1.1883 -1.6124 2.0652c-0.2967 0.2421 -0.591 0.47 -0.8615 0.6599 -0.2373 0.1666 -0.506 0.3389 -0.7842 0.5081 -1.0724 0.6521 -1.6086 0.9782 -2.0895 0.6172 -0.4809 -0.361 -0.52461 -1.1168 -0.61202 -2.6282C9.51566 13.7947 9.5 13.3757 9.5 13c0 -0.3757 0.01566 -0.7947 0.04038 -1.2222 0.08741 -1.5114 0.13112 -2.26719 0.61202 -2.6282 0.4809 -0.36101 1.0171 -0.03494 2.0895 0.61719 0.2782 0.16918 0.5469 0.34151 0.7842 0.50811 0.2705 0.1899 0.5648 0.4178 0.8615 0.6599Z" stroke="#000000" stroke-width="1.5"></path>
  <path d="M7.5 5.20404C8.82378 4.43827 10.3607 4 12 4c4.9706 0 9 4.02944 9 9 0 4.9706 -4.0294 9 -9 9 -4.97056 0 -9 -4.0294 -9 -9 0 -1.6393 0.43827 -3.17622 1.20404 -4.5" stroke="#000000" stroke-linecap="round" stroke-width="1.5"></path>
</svg>