<svg viewBox="0 0 24 24" fill="none" xmlns="http://www.w3.org/2000/svg" id="Tag-Horizontal--Streamline-Solar-Broken" height="24" width="24">
  <desc>
    Tag Horizontal Streamline Icon: https://streamlinehq.com
  </desc>
  <path d="M13.358 21c2.2274 0 3.3412 0 4.2709 -0.5328 0.9297 -0.5327 1.5199 -1.5092 2.7005 -3.4622l0.6808 -1.1263C22.0034 14.2357 22.5 13.4142 22.5 12.5c0 -0.9142 -0.4966 -1.7357 -1.4898 -3.37874l-0.6808 -1.12625c-1.1806 -1.95298 -1.7708 -2.92947 -2.7005 -3.46224C16.6992 4 15.5854 4 13.358 4h-2.637C9.68263 4 8.78333 4 8 4.02395M3.70394 5.2448C2.5 6.48959 2.5 8.49306 2.5 12.5c0 4.0069 0 6.0104 1.20394 7.2552 0.99845 1.0323 2.50156 1.2085 5.19603 1.2386" stroke="#000000" stroke-linecap="round" stroke-width="1.5"></path>
  <path d="M7.5 7.99512V17" stroke="#000000" stroke-linecap="round" stroke-width="1.5"></path>
</svg>