<svg viewBox="0 0 24 24" fill="none" xmlns="http://www.w3.org/2000/svg" id="Trash-Bin-Minimalistic--Streamline-Solar-Broken" height="24" width="24">
  <desc>
    Trash Bin Minimalistic Streamline Icon: https://streamlinehq.com
  </desc>
  <path d="M9.17065 4c0.41184 -1.16519 1.52305 -2 2.82925 -2 1.3063 0 2.4175 0.83481 2.8293 2" stroke="#000000" stroke-linecap="round" stroke-width="1.5"></path>
  <path d="M20.5001 6H3.5" stroke="#000000" stroke-linecap="round" stroke-width="1.5"></path>
  <path d="M18.3735 15.3991c-0.177 2.6549 -0.2655 3.9824 -1.1305 4.7916C16.378 21 15.0476 21 12.3868 21h-0.7734c-2.6608 0 -3.9912 0 -4.85621 -0.8093 -0.86501 -0.8092 -0.95351 -2.1367 -1.1305 -4.7916L5.16675 8.5m13.66665 0 -0.2 3" stroke="#000000" stroke-linecap="round" stroke-width="1.5"></path>
  <path d="m9.5 11 0.5 5" stroke="#000000" stroke-linecap="round" stroke-width="1.5"></path>
  <path d="m14.5 11 -0.5 5" stroke="#000000" stroke-linecap="round" stroke-width="1.5"></path>
</svg>