<svg viewBox="0 0 24 24" fill="none" xmlns="http://www.w3.org/2000/svg" id="Treadmill--Streamline-Solar-Broken" height="24" width="24">
  <desc>
    Treadmill Streamline Icon: https://streamlinehq.com
  </desc>
  <path stroke="#000000" d="M13 4a2 2 0 1 0 4 0 2 2 0 1 0 -4 0" stroke-width="1.5"></path>
  <path d="M11 16.0002v-1.6335c0 -0.549 -0.2439 -1.0697 -0.6656 -1.4212l-0.99647 -0.8303c-0.71847 -0.5988 -0.76775 -1.6852 -0.10643 -2.34649l1.654 -1.65398c0.5338 -0.53383 0.3597 -1.43802 -0.3342 -1.73541 -1.28503 -0.55071 -2.75826 -0.43727 -3.94378 0.30369L4.5 8.00021" stroke="#000000" stroke-linecap="round" stroke-width="1.5"></path>
  <path d="m7 14 -0.32843 0.3284c-0.57806 0.5781 -0.86709 0.8671 -1.23463 1.0194 -0.36754 0.1522 -0.77629 0.1522 -1.59379 0.1522H3" stroke="#000000" stroke-linecap="round" stroke-width="1.5"></path>
  <path d="M12.5 10h3" stroke="#000000" stroke-linecap="round" stroke-width="1.5"></path>
  <path d="M11.2878 21.9996H3.08684C2.48659 21.9996 2 21.513 2 20.9128c0 -0.528 0.37943 -0.9796 0.89949 -1.0706l16.15641 -2.8274C20.5926 16.7459 22 17.9284 22 19.4884c0 1.3869 -1.1243 2.5112 -2.5112 2.5112H15" stroke="#000000" stroke-linecap="round" stroke-linejoin="round" stroke-width="1.5"></path>
  <path d="m19.2916 8.88902 -0.7417 -0.11125 0.7417 0.11125Zm1.5857 -1.66448 0.1471 0.73544 -0.1471 -0.73544Zm1.2698 0.5109c0.4062 -0.08124 0.6696 -0.47636 0.5883 -0.88253 -0.0812 -0.40617 -0.4763 -0.66958 -0.8825 -0.58835l0.2942 1.47088Zm-2.9046 6.37066c0.0585 -0.4101 -0.2264 -0.79 -0.6364 -0.8486 -0.4101 -0.0585 -0.79 0.2264 -0.8486 0.6364l1.485 0.2122Zm-0.854 -4.25196c-0.0615 0.40966 0.2208 0.79156 0.6304 0.85296 0.4097 0.0614 0.7915 -0.2208 0.853 -0.6304l-1.4834 -0.22256Zm2.6359 -1.89416 1.1227 -0.22454 -0.2942 -1.47088 -1.1227 0.22455 0.2942 1.47087Zm-0.9911 1.0403c0.0529 -0.35246 0.0845 -0.55541 0.1235 -0.70178 0.0176 -0.06598 0.0317 -0.09967 0.0397 -0.11562 0.0037 -0.00739 0.0059 -0.0107 0.0064 -0.01144 0.0005 -0.00062 0.0005 -0.0007 0.0008 -0.00103l-1.086 -1.03462c-0.2271 0.23833 -0.3395 0.51107 -0.4101 0.77593 -0.0658 0.24653 -0.1098 0.54712 -0.1577 0.86605l1.4834 0.22251Zm0.6969 -2.51117c-0.3162 0.06324 -0.6143 0.12175 -0.8574 0.19941 -0.2611 0.08345 -0.5281 0.20894 -0.7551 0.44727l1.086 1.03462c0.0004 -0.00032 0.0004 -0.00041 0.001 -0.00086 0.0007 -0.00055 0.0039 -0.00295 0.0112 -0.00699 0.0155 -0.00871 0.0485 -0.02443 0.1135 -0.04522 0.1443 -0.04611 0.3455 -0.08747 0.695 -0.15736l-0.2942 -1.47087ZM18.7425 17.6061l0.5 -3.5 -1.485 -0.2122 -0.5 3.5 1.485 0.2122Zm1.1294 -7.5294 0.1614 -1.07642 -1.4834 -0.22251 -0.1614 1.07637 1.4834 0.22256Z" fill="#000000" stroke-width="1.5"></path>
</svg>