<svg viewBox="0 0 24 24" fill="none" xmlns="http://www.w3.org/2000/svg" id="Treadmill-Round--Streamline-Solar-Broken" height="24" width="24">
  <desc>
    Treadmill Round Streamline Icon: https://streamlinehq.com
  </desc>
  <path stroke="#000000" d="M13 4a2 2 0 1 0 4 0 2 2 0 1 0 -4 0" stroke-width="1.5"></path>
  <path d="M11 16.0001v-0.9738c0 -0.1185 0 -0.1777 -0.0021 -0.2343 -0.0307 -0.8109 -0.3884 -1.5747 -0.9917 -2.1173 -0.04212 -0.0379 -0.08768 -0.0758 -0.1787 -0.1517 -0.13339 -0.1112 -0.20009 -0.1667 -0.2517 -0.2164 -0.76636 -0.7377 -0.82118 -1.9462 -0.12476 -2.7503 0.04691 -0.05416 0.1083 -0.11555 0.23107 -0.23832l0.32919 -0.32924c0.9526 -0.95252 0.6419 -2.56587 -0.59628 -3.0965 -0.57321 -0.24566 -1.23038 -0.19505 -1.75921 0.13547L4.5 8.00009" stroke="#000000" stroke-linecap="round" stroke-width="1.5"></path>
  <path d="M3 15.5h0.37868C4.73694 15.5 6.03957 14.9604 7 14" stroke="#000000" stroke-linecap="round" stroke-width="1.5"></path>
  <path d="M12.5 10c0.9737 0.3246 2.0263 0.3246 3 0" stroke="#000000" stroke-linecap="round" stroke-width="1.5"></path>
  <path d="M11.2878 22.0001H3.08684C2.48659 22.0001 2 21.5135 2 20.9133c0 -0.528 0.37943 -0.9796 0.89949 -1.0706l16.15641 -2.8274C20.5926 16.7464 22 17.9289 22 19.4889c0 1.3869 -1.1243 2.5112 -2.5112 2.5112H15" stroke="#000000" stroke-linecap="round" stroke-linejoin="round" stroke-width="1.5"></path>
  <path d="M18.3801 9.91005c-0.0614 0.40965 0.2208 0.79155 0.6304 0.85295 0.4097 0.0614 0.7916 -0.2208 0.853 -0.6304l-1.4834 -0.22255Zm3.767 -2.17461c0.4062 -0.08124 0.6696 -0.47636 0.5883 -0.88253 -0.0812 -0.40617 -0.4763 -0.66958 -0.8825 -0.58835l0.2942 1.47088Zm-2.8445 6.13646c0.0614 -0.4096 -0.2208 -0.7915 -0.6304 -0.853 -0.4097 -0.0614 -0.7916 0.2209 -0.853 0.6305l1.4834 0.2225Zm0.5609 -3.7393c0.1801 -1.20043 1.0933 -2.15911 2.2836 -2.39716l-0.2942 -1.47088c-1.8101 0.36202 -3.199 1.81996 -3.4728 3.64549l1.4834 0.22255Zm-1.1218 7.4787 0.5609 -3.7394 -1.4834 -0.2225 -0.5609 3.7393 1.4834 0.2226Z" fill="#000000" stroke-width="1.5"></path>
</svg>