<svg xmlns="http://www.w3.org/2000/svg" fill="none" viewBox="0 0 24 24" id="View-Agenda--Streamline-Rounded-Material" height="24" width="24">
  <desc>
    View Agenda Streamline Icon: https://streamlinehq.com
  </desc>
  <path fill="#000000" d="M4.5 11.25c-0.4 0 -0.75 -0.15 -1.05 -0.45 -0.3 -0.3 -0.45 -0.65 -0.45 -1.05V4.5c0 -0.4 0.15 -0.75 0.45 -1.05C3.75 3.15 4.1 3 4.5 3h15c0.4 0 0.75 0.15 1.05 0.45 0.3 0.3 0.45 0.65 0.45 1.05v5.25c0 0.4 -0.15 0.75 -0.45 1.05 -0.3 0.3 -0.65 0.45 -1.05 0.45H4.5Zm0 -1.5h15V4.5H4.5v5.25ZM4.5 21c-0.4 0 -0.75 -0.15 -1.05 -0.45 -0.3 -0.3 -0.45 -0.65 -0.45 -1.05V14.25c0 -0.4 0.15 -0.75 0.45 -1.05 0.3 -0.3 0.65 -0.45 1.05 -0.45h15c0.4 0 0.75 0.15 1.05 0.45 0.3 0.3 0.45 0.65 0.45 1.05V19.5c0 0.4 -0.15 0.75 -0.45 1.05 -0.3 0.3 -0.65 0.45 -1.05 0.45H4.5Zm0 -1.5h15V14.25H4.5V19.5Z" stroke-width="0.5"></path>
</svg>